<svg width="32" height="32" viewBox="0 0 32 32" fill="none" xmlns="http://www.w3.org/2000/svg">
<path d="M16.029 0.119995C7.20993 0.119995 0.0585938 7.39193 0.0585938 16.363C0.0585938 23.5397 4.63459 29.6284 10.9801 31.7763C11.7783 31.9266 12.0713 31.4239 12.0713 30.9949C12.0713 30.6075 12.0565 29.328 12.0496 27.9707C7.60663 28.9533 6.66911 26.0542 6.66911 26.0542C5.94263 24.1767 4.89588 23.6775 4.89588 23.6775C3.44689 22.6693 5.00511 22.69 5.00511 22.69C6.60881 22.8043 7.45324 24.3639 7.45324 24.3639C8.87763 26.8472 11.1893 26.1292 12.1006 25.7142C12.244 24.6646 12.6579 23.9475 13.1146 23.5422C9.56735 23.1314 5.83843 21.7386 5.83843 15.5147C5.83843 13.7413 6.4623 12.2923 7.48392 11.1547C7.3181 10.7453 6.77145 9.09351 7.63863 6.85612C7.63863 6.85612 8.97972 6.41956 12.0316 8.52112C13.3055 8.16122 14.6718 7.98073 16.029 7.97455C17.3862 7.98073 18.7535 8.16122 20.0298 8.52112C23.078 6.41956 24.4172 6.85612 24.4172 6.85612C25.2865 9.09351 24.7396 10.7453 24.5738 11.1547C25.5978 12.2923 26.2174 13.7413 26.2174 15.5147C26.2174 21.7534 22.4813 23.1271 18.9251 23.5293C19.4979 24.0333 20.0083 25.0218 20.0083 26.5373C20.0083 28.7104 19.9898 30.4596 19.9898 30.9949C19.9898 31.4271 20.2773 31.9336 21.0868 31.7741C27.4289 29.6239 31.9991 23.5373 31.9991 16.363C31.9991 7.39193 24.8488 0.119995 16.029 0.119995Z" fill="#252525"/>
</svg>
