<svg width="48" height="48" viewBox="0 0 48 48" fill="none" xmlns="http://www.w3.org/2000/svg">
<path d="M24.0435 0.179932C10.8149 0.179932 0.0878906 11.0878 0.0878906 24.5445C0.0878906 35.3096 6.95189 44.4426 16.4702 47.6643C17.6674 47.8899 18.1069 47.1358 18.1069 46.4922C18.1069 45.9112 18.0847 43.9919 18.0744 41.956C11.4099 43.4299 10.0037 39.0812 10.0037 39.0812C8.91394 36.265 7.34382 35.5161 7.34382 35.5161C5.17034 34.0039 7.50766 34.035 7.50766 34.035C9.91321 34.2065 11.1799 36.5458 11.1799 36.5458C13.3165 40.2707 16.784 39.1938 18.151 38.5712C18.366 36.9969 18.9868 35.9212 19.6719 35.3132C14.351 34.6971 8.75764 32.6079 8.75764 23.2719C8.75764 20.6118 9.69344 18.4383 11.2259 16.732C10.9771 16.1179 10.1572 13.6402 11.4579 10.2841C11.4579 10.2841 13.4696 9.62928 18.0474 12.7816C19.9583 12.2418 22.0076 11.971 24.0435 11.9618C26.0793 11.971 28.1302 12.2418 30.0447 12.7816C34.6169 9.62928 36.6258 10.2841 36.6258 10.2841C37.9297 13.6402 37.1094 16.1179 36.8606 16.732C38.3966 18.4383 39.3261 20.6118 39.3261 23.2719C39.3261 32.6301 33.722 34.6906 28.3877 35.2938C29.2469 36.0499 30.0125 37.5327 30.0125 39.8059C30.0125 43.0655 29.9848 45.6893 29.9848 46.4922C29.9848 47.1406 30.416 47.9003 31.6302 47.6611C41.1434 44.4357 47.9986 35.3059 47.9986 24.5445C47.9986 11.0878 37.2732 0.179932 24.0435 0.179932Z" fill="white"/>
</svg>
